HIERARCHY
ROOT hip
{
	OFFSET 0.000000 0.000000 0.000000 
	CHANNELS 6 Xposition Yposition Zposition Xrotation Zrotation Yrotation
	JOINT abdomen
	{
		OFFSET 0.000000 3.402643 0.000000 
		CHANNELS 3 Xrotation Zrotation Yrotation
		JOINT chest
		{
			OFFSET 0.000000 8.438565 -0.680529 
			CHANNELS 3 Xrotation Zrotation Yrotation
			JOINT neck
			{
				OFFSET 0.000000 10.207942 -0.272212 
				CHANNELS 3 Xrotation Zrotation Yrotation
				JOINT head
				{
					OFFSET 0.000000 3.130431 0.000000 
					CHANNELS 3 Xrotation Zrotation Yrotation
					End Site
					{
						OFFSET 0.000000 3.130435 0.000000 
					}
				}
			}
			JOINT lCollar
			{
				OFFSET 3.470700 6.669187 -0.816635 
				CHANNELS 3 Yrotation Zrotation Xrotation
				JOINT lShldr
				{
					OFFSET 3.198488 0.000000 0.000000 
					CHANNELS 3 Zrotation Yrotation Xrotation
					JOINT lForeArm
					{
						OFFSET 10.139888 0.000000 0.000000 
						CHANNELS 3 Yrotation Zrotation Xrotation
						JOINT lHand
						{
							OFFSET 8.370511 0.000000 0.000000 
							CHANNELS 3 Zrotation Yrotation Xrotation
							End Site
							{
								OFFSET 4.083176 0.000000 0.000000 
							}
						}
					}
				}
			}
			JOINT rCollar
			{
				OFFSET -3.470700 6.669187 -0.816635 
				CHANNELS 3 Yrotation Zrotation Xrotation
				JOINT rShldr
				{
					OFFSET -3.198488 0.000000 0.000000 
					CHANNELS 3 Zrotation Yrotation Xrotation
					JOINT rForeArm
					{
						OFFSET -10.139888 0.000000 0.000000 
						CHANNELS 3 Yrotation Zrotation Xrotation
						JOINT rHand
						{
							OFFSET -8.370511 0.000000 0.000000 
							CHANNELS 3 Zrotation Yrotation Xrotation
							End Site
							{
								OFFSET -4.083176 0.000000 0.000000 
							}
						}
					}
				}
			}
		}
	}
	JOINT lThigh
	{
		OFFSET 5.308129 -1.633274 1.361059 
		CHANNELS 3 Xrotation Zrotation Yrotation
		JOINT lShin
		{
			OFFSET -2.041588 -20.007561 0.000000 
			CHANNELS 3 Xrotation Zrotation Yrotation
			JOINT lFoot
			{
				OFFSET 0.000000 -19.190928 -1.224953 
				CHANNELS 3 Xrotation Yrotation Zrotation
				End Site
				{
					OFFSET 0.000000 -2.449906 4.627600 
				}
			}
		}
	}
	JOINT rThigh
	{
		OFFSET -5.308129 -1.633274 1.361059 
		CHANNELS 3 Xrotation Zrotation Yrotation
		JOINT rShin
		{
			OFFSET 2.041588 -20.007561 0.000000 
			CHANNELS 3 Xrotation Zrotation Yrotation
			JOINT rFoot
			{
				OFFSET 0.000000 -19.190928 -1.224953 
				CHANNELS 3 Xrotation Yrotation Zrotation
				End Site
				{
					OFFSET 0.000000 -2.449906 4.627600 
				}
			}
		}
	}
}
MOTION
Frames: 14
Frame Time: 0.016667
-34.491272 50.734360 13.845874 -5.614276 -6.736113 -92.340111 36.782001 4.542294 3.507528 16.991989 3.079901 11.647930 27.973928 -6.773846 -3.599918 -36.168488 -0.405446 -8.691671 13.139159 26.360949 -6.321149 -1.905921 5.245333 -95.382164 -14.405924 -2.477097 -22.381233 1.575856 -3.407222 -3.506934 -24.069849 -30.000000 -13.930532 -46.638699 42.795090 -107.822304 21.988966 1.810201 -11.358589 -1.593611 3.386809 -3.497299 -19.497332 3.534040 0.231242 18.424040 2.409914 -17.021997 7.256468 1.857273 -3.650436 -17.788622 -17.163710 -1.026492 5.051089 11.227194 -50.297882 7.890087 2.662039 -7.075949 
-35.953190 50.037350 14.049808 -6.568349 -7.164359 -102.030647 36.782001 4.542294 3.507528 18.474445 2.658955 16.532080 27.798840 -9.205800 -4.848365 -36.576580 0.737595 -6.377429 11.436823 22.685528 -4.563867 -3.092207 10.819494 -94.002380 -14.333169 -2.490910 -22.638292 1.575856 -3.407222 -3.506934 -24.968691 -29.999584 -14.891342 -51.736481 47.251633 -111.411682 23.359552 1.833714 -12.396183 -1.593611 3.386809 -3.497299 -20.331213 2.050198 0.175445 18.000792 2.408396 -16.159195 6.360279 1.917701 -3.627590 -19.616856 -16.804678 -1.015941 7.751108 12.734376 -51.912651 4.718400 2.502945 -6.944233 
-37.641415 49.193237 14.242422 -8.172063 -7.961101 -112.065086 36.782001 4.542294 3.507528 19.851458 0.884251 21.018278 27.330330 -10.906185 -5.590242 -36.886921 1.713896 -4.308507 9.812979 16.611835 -2.960120 -5.540721 16.435125 -91.763756 -14.341611 -2.499892 -22.811552 1.575856 -3.407222 -3.506934 -23.024954 -30.000000 -13.815041 -58.324974 52.251194 -115.400894 24.641478 1.892334 -13.798334 -1.593611 3.386809 -3.497299 -22.131252 0.819604 0.174457 19.068047 2.536619 -15.873655 5.677184 1.776413 -3.670032 -22.087400 -16.648634 -0.910583 10.139440 13.997422 -52.317928 1.307008 2.611153 -7.095378 
-39.329903 48.348984 14.434817 -9.626901 -9.022223 -122.091011 36.782001 4.542294 3.507528 21.088430 -0.996507 25.443483 26.883245 -12.601100 -6.325155 -37.166180 2.703017 -2.238444 8.395442 10.508188 -1.573826 -7.829423 22.127350 -89.704948 -14.350655 -2.506423 -22.994270 1.575856 -3.407222 -3.506934 -21.069866 -30.000000 -12.735484 -66.356056 56.873009 -120.898323 25.923832 1.934153 -15.190024 -1.593611 3.386809 -3.497299 -23.955500 -0.410596 0.196475 20.124722 2.668024 -15.594907 4.993514 1.615777 -3.731049 -24.535711 -16.490726 -0.841571 12.530956 15.277884 -52.646927 -2.082906 2.715867 -7.234667 
-41.222084 47.397228 14.457478 -10.956206 -10.438210 -131.235840 36.782001 4.542294 3.507528 21.903006 -3.408734 28.218367 26.168045 -13.556024 -6.581487 -37.307564 3.427584 -0.537900 7.219615 4.507908 -0.651744 -12.717519 26.465832 -88.904884 -14.535563 -2.511397 -23.075026 1.575856 -3.407222 -3.506934 -15.679625 -30.000000 -9.299338 -73.903595 62.951504 -125.697380 26.779348 1.992230 -16.594542 -1.593611 3.386809 -3.497299 -26.256569 -0.996630 -0.038188 23.436365 2.844564 -14.133720 3.838326 1.640867 -3.720565 -27.077433 -16.580534 -0.903641 15.801489 17.213345 -50.666805 -6.585372 2.594756 -7.203906 
-43.114410 46.445362 14.479846 -12.058766 -12.050466 -140.390244 36.782001 4.542294 3.507528 22.613714 -5.853126 30.950090 25.467609 -14.520072 -6.820678 -37.425041 4.169063 1.165423 6.146407 -1.497993 0.145848 -17.736372 30.845182 -88.488861 -14.716640 -2.506848 -23.155024 1.575856 -3.407222 -3.506934 -10.276874 -29.999502 -5.850229 95.279144 111.407623 46.159817 27.625631 2.044063 -17.994373 -1.593611 3.386809 -3.497299 -28.568369 -1.601310 -0.260541 26.754601 2.948174 -12.660225 2.692738 1.643416 -3.717171 -29.606066 -16.658447 -0.942130 19.151468 19.005424 -48.545742 -11.077489 2.432994 -7.169576 
-45.108551 45.414303 14.281566 -11.598095 -13.576180 -148.457413 36.782001 4.542294 3.507528 23.319860 -7.269432 32.006092 24.564201 -14.623418 -6.603015 -37.312515 4.791635 2.127230 5.383925 -6.839006 0.598193 -25.216242 32.104431 -90.679214 -14.980029 -2.514903 -23.247543 1.575856 -3.407222 -3.506934 -2.891174 -29.826992 -1.766024 86.837715 101.836212 37.941223 27.457605 2.047303 -18.082758 -1.593611 3.386809 -3.497299 -30.062819 -1.689745 -0.194578 32.570946 3.390479 -9.503860 -0.201839 1.661229 -3.809109 -32.289448 -16.237700 -1.007598 25.761265 20.543190 -44.211685 -15.542691 2.528094 -7.162611 
-47.102615 44.383278 14.083039 -10.924326 -15.019974 -156.588348 36.782001 4.542294 3.507528 24.011168 -8.696937 33.044331 23.668642 -14.716931 -6.382902 -37.178986 5.412089 3.090077 4.661977 -12.188801 0.987375 -32.831974 33.099335 -93.058418 -15.239132 -2.515653 -23.330011 1.575856 -3.407222 -3.506934 4.421955 -29.194128 2.234597 35.659378 93.944725 -13.030965 27.280207 2.058451 -18.164011 -1.593611 3.386809 -3.497299 -31.547583 -1.777654 -0.126364 38.412876 3.499062 -6.318461 -3.089690 1.664436 -3.865475 -34.967323 -15.818846 -1.092680 32.548515 21.581604 -39.662746 -20.018719 2.602325 -7.104072 
-49.034439 43.386208 13.703473 -8.745726 -15.151914 -163.494080 36.782001 4.542294 3.507528 25.079069 -8.708673 32.577999 22.853130 -13.982484 -5.849655 -36.710960 5.967474 3.171706 3.571963 -16.682165 0.977728 -40.044350 28.859035 -93.848534 -15.686279 -2.501381 -23.421896 1.575856 -3.407222 -3.506934 10.237500 -24.478769 4.131399 91.349899 78.260155 37.862728 26.476589 1.966278 -15.806405 -1.593611 3.386809 -3.497299 -31.557209 -1.337809 -0.210935 45.018284 2.880742 -1.924243 -7.045240 1.766831 -3.833614 -37.224880 -14.404003 -0.772821 40.896511 20.826324 -35.725018 -22.903547 2.580095 -7.221952 
-50.965965 42.389507 13.323784 -6.562365 -15.021167 -170.403992 36.782001 4.542294 3.507528 26.155823 -8.702043 32.121201 22.054106 -13.245350 -5.329144 -36.232697 6.522827 3.243929 2.446587 -21.168427 0.880723 -46.927010 24.557159 -94.018242 -16.128262 -2.498268 -23.513098 1.575856 -3.407222 -3.506934 15.694909 -19.613176 5.439690 86.761703 63.988926 28.335531 25.679144 1.841681 -13.443518 -1.593611 3.386809 -3.497299 -31.572123 -0.908202 -0.312399 51.534008 1.757908 2.348135 -11.009686 1.886780 -3.784702 -39.446075 -12.986153 -0.533659 49.108288 19.546181 -31.989960 -25.788567 2.584332 -7.337746 
-52.654190 41.675694 12.859238 175.876251 -166.247070 4.765212 36.782001 4.542294 3.507528 27.268154 -7.857921 29.976837 21.553261 -11.720861 -4.609878 -35.456673 6.731838 2.518240 0.652459 -23.103098 0.244903 -49.850266 15.448011 -86.185600 -16.997681 -2.478010 -23.327608 1.575856 -3.407222 -3.506934 17.830914 -14.882106 4.648685 74.776604 48.652237 9.586422 24.806559 1.764051 -11.424498 -1.593611 3.386809 -3.497299 -30.868759 -0.732427 -0.322073 56.892773 0.913650 7.061043 -14.001289 1.903922 -3.642729 -40.523998 -10.976149 -0.478680 54.998890 17.020521 -30.235830 -26.413065 2.444803 -7.329690 
-54.342014 40.962601 12.394669 178.189117 -167.714844 0.019084 36.782001 4.542294 3.507528 28.347652 -6.976941 27.860516 21.083403 -10.191573 -3.909537 -34.677052 6.949800 1.781764 -1.182159 -25.000000 -0.463053 -53.885799 6.804372 -78.127113 -17.867048 -2.459303 -23.147240 1.575856 -3.407222 -3.506934 20.003214 -10.173400 3.708936 71.432587 32.204067 -1.272096 23.941050 1.651223 -9.411631 -1.593611 3.386809 -3.497299 -30.165356 -0.556811 -0.338901 62.162540 -0.375191 11.639489 -16.992321 1.936660 -3.498653 -41.597569 -8.964302 -0.473520 60.731636 14.306139 -28.781670 -27.029007 2.327810 -7.296414 
-55.741318 40.769985 11.913125 179.852188 -169.786407 -2.689367 36.782001 4.542294 3.507528 28.943146 -6.042675 23.644939 21.128572 -8.044953 -3.107370 -33.687244 6.777329 0.118673 -3.462656 -23.584278 -1.327986 -51.156845 -3.328231 -66.617065 -19.302208 -2.348926 -21.733448 1.575856 -3.407222 -3.506934 19.572596 -7.298185 2.622523 61.989029 19.683241 -12.857427 22.362398 1.777986 -11.795150 -1.593611 3.386809 -3.497299 -28.749449 -0.556842 -0.269935 64.572586 -1.302072 15.432225 -18.299170 1.896027 -3.714960 -40.881287 -7.381471 -0.558216 62.402760 12.266257 -28.468660 -26.258245 2.464235 -7.304719 
-57.140331 40.578255 11.431614 -178.587387 -171.928940 -5.316961 36.782001 4.542294 3.507528 29.463486 -5.066096 19.453228 21.203608 -5.913246 -2.298143 -32.688240 6.638237 -1.543242 -5.699538 -22.141212 -2.130188 -50.464981 -13.796873 -55.311989 -20.728304 -2.275962 -20.318014 1.575856 -3.407222 -3.506934 19.199221 -4.413330 1.555908 55.691635 5.879595 -21.673195 20.785358 1.953415 -14.180634 -1.593611 3.386809 -3.497299 -27.323561 -0.566780 -0.199180 66.900093 -2.397087 19.148653 -19.614267 1.888025 -3.914592 -40.177284 -5.799910 -0.591241 64.058105 10.250332 -28.225788 -25.457323 2.591259 -7.321389 
